Simulation
nRows=46
nColumns=15
endheader
time  TH_x TH_y TH_z SC_y  SC_z  SC_x  AC_y  AC_z  AC_x  GH_y  GH_z  GH_yy  EL_x  PS_y
1.5500000000000007  0.000000  0.000000  0.000000  -49.662276556761775  17.09830925796359  14.378241889519709  40.91307068671542  -4.666166487196396  -2.2781577668886466  -45.99817980386605  18.817824069109314  93.462956085525  82.32314746406236  120.000000
1.5810000000000006  0.000000  0.000000  0.000000  -49.76232067682465  17.20770744685272  14.67179700849733  40.93157372889778  -4.739637207454114  -2.3346262184857465  -46.06162215255201  18.794956751666888  93.55384836979287  82.52194691745385  120.000000
1.6120000000000008  0.000000  0.000000  0.000000  -49.824029273449426  17.295623429257784  14.815526384393833  40.92533012137325  -4.7910161705070005  -2.359465923818985  -45.907407974818106  18.765839195748278  93.37993937600082  82.54997386893075  120.000000
1.6430000000000007  0.000000  0.000000  0.000000  -49.83771839476946  17.343435579599515  14.805332713670628  40.90027991226581  -4.8097706984988955  -2.356617542871003  -45.53286714213374  18.725238443945933  92.94077098628169  82.39295733704098  120.000000
1.6740000000000008  0.000000  0.000000  0.000000  -49.794885238617624  17.330280966764008  14.645516678549866  40.86271273256915  -4.7861381559815905  -2.333686340476925  -44.94731063691735  18.669179846218864  92.24894620981925  82.04019803515574  120.000000
1.7050000000000007  0.000000  0.000000  0.000000  -49.689349131842924  17.238117587875315  14.347445754694085  40.817766539030515  -4.712849820117559  -2.301486911214711  -44.1662738685996  18.5929165718899  91.3246927913506  81.48489998579026  120.000000
1.7360000000000007  0.000000  0.000000  0.000000  -49.51677730631248  17.058026097323488  13.92797236298785  40.76438623267718  -4.587436444176499  -2.2716531319591597  -43.20868953141392  18.489724894744487  90.19676401514897  80.72339958766428  120.000000
1.7670000000000008  0.000000  0.000000  0.000000  -49.274002455773115  16.791424782383377  13.407798020187453  40.7001345109753  -4.411020137743381  -2.2571455994553746  -42.092133228530024  18.348873955244805  88.89458997310166  79.75643129739338  120.000000
1.7980000000000007  0.000000  0.000000  0.000000  -48.962522286324635  16.444232790894226  12.812780161902655  40.62614589986721  -4.189387311935747  -2.2700576416491534  -40.841347011383256  18.15853986439863  87.44607888203545  78.5890010923385  120.000000
1.8290000000000008  0.000000  0.000000  0.000000  -48.590727678389214  16.022215389099895  12.17226265301369  40.54272880635631  -3.9330413785284497  -2.3137324467353038  -39.50637261976766  17.913026664761393  85.89326935360356  77.23163953049794  120.000000
1.8600000000000008  0.000000  0.000000  0.000000  -48.17132118113767  15.533117512805562  11.513593378046814  40.45966430791287  -3.653197883421839  -2.3830675522823213  -38.151944876380135  17.6129392347513  84.2828581088355  75.7038493590522  120.000000
1.891000000000001  0.000000  0.000000  0.000000  -47.71624734838159  14.98962213586701  10.858833620551076  40.388350372307  -3.3574915395942533  -2.4715822815414534  -36.83698680734063  17.258099124450347  82.65856278853907  74.03265756617829  120.000000
1.9220000000000008  0.000000  0.000000  0.000000  -47.23612814633008  14.406010585153089  10.224572558217094  40.3338938577008  -3.050017546189812  -2.5720020261776892  -35.61299530471182  16.84812785196864  81.06414459984687  72.24832672858773  120.000000
1.953000000000001  0.000000  0.000000  0.000000  -46.74092255300412  13.795772792512105  9.623101213199995  40.299593126025954  -2.7319869927044174  -2.6788948417730487  -34.51935717366429  16.380044528016022  79.5341568485783  70.37902470005555  120.000000
1.9840000000000009  0.000000  0.000000  0.000000  -46.23879918890375  13.170583292478456  9.064623098999453  40.286401503658084  -2.4037692857516024  -2.7894620078781407  -33.58474537015931  15.849060895135189  78.09555935396531  68.44710280035464  120.000000
2.015000000000001  0.000000  0.000000  0.000000  -45.73582685783776  12.539023358858206  8.556255878388876  40.29446954222725  -2.064886800636087  -2.9029219519370417  -32.823324981614505  15.249879425805023  76.76346332700594  66.46647431379202  120.000000
2.0460000000000007  0.000000  0.000000  0.000000  -45.23572980582199  11.906262117448183  8.099798228447524  40.323509674695366  -1.7126073698638975  -3.018427345466142  -32.23443261658287  14.578177951516247  75.54112786019645  64.44362303110734  120.000000
2.077000000000001  0.000000  0.000000  0.000000  -44.740402177651504  11.27469112137365  7.691214902696434  40.373147470503795  -1.3432006503721512  -3.133238961682064  -31.80347512181837  13.833757686375598  74.42023493111428  62.38085002435902  120.000000
2.108000000000001  0.000000  0.000000  0.000000  -44.2503897980729  10.645557113614169  7.320398165688113  40.44422208579836  -0.9539870660805222  -3.241137644711315  -31.502841522706664  13.022957610659875  73.37952909438182  60.279633980167375  120.000000
2.139000000000001  0.000000  0.000000  0.000000  -43.76504107396484  10.02105438087901  6.971709028956021  40.53938419297132  -0.5468300106745168  -3.329620766271329  -31.295671089917008  12.162252217632766  72.38749331117917  58.14276178861712  120.000000
2.170000000000001  0.000000  0.000000  0.000000  -43.28248028421866  9.405633512609718  6.626235642235299  40.66544283657897  -0.13137721837608274  -3.37999484423637  -31.13589503147682  11.279475818540341  71.40000872890451  55.97427107089202  120.000000
2.201000000000001  0.000000  0.000000  0.000000  -42.80053074281653  8.804869637729672  6.264790789609018  40.83249695246275  0.2747907482955306  -3.3688239026565165  -30.971159577137954  10.413881001124624  70.36424299031168  53.77928197316367  120.000000
2.232000000000001  0.000000  0.000000  0.000000  -42.31677262877219  8.224462954764256  5.868818006809778  41.05219488137633  0.6508001488965595  -3.2714895770669314  -30.741169351023657  9.610235036598509  69.21865650105455  51.563448098888955  120.000000
2.263000000000001  0.000000  0.000000  0.000000  -41.827639927669736  7.66978122868756  5.421240835445727  41.3342202509596  0.9786572846221507  -3.0679236271608605  -30.373111403580026  8.909025865877204  67.89086725185658  49.331339455070356  120.000000
2.294000000000001  0.000000  0.000000  0.000000  -41.32978594294933  7.141579191066269  4.90847746986297  41.680816392216336  1.2515329695940145  -2.7500243581849597  -29.78614453437983  8.339275687208794  66.30579064663881  47.09044041464165  120.000000
2.325000000000001  0.000000  0.000000  0.000000  -40.82187536870295  6.636569747301158  4.321740385798574  42.08344041043214  1.4753659093346054  -2.322656538648831  -28.901314081428676  7.913254306384008  64.39780295222808  44.850983187537196  120.000000
2.356000000000001  0.000000  0.000000  0.000000  -40.304286294275656  6.152537623228427  3.6559080406621898  42.523850521740435  1.663756712799438  -1.7987537352275027  -27.64227368937867  7.62411296391926  62.108896447634855  42.61983852914611  120.000000
2.387000000000001  0.000000  0.000000  0.000000  -39.77908008080786  5.685606697314287  2.9077791472683248  42.977677902427985  1.83827932622324  -1.197653737863139  -25.944653521068556  7.452773770113292  59.39612006542842  40.404131280676864  120.000000
2.418000000000001  0.000000  0.000000  0.000000  -39.24997905765554  5.229416914005733  2.0742446228671274  43.42042848643488  2.026015292294116  -0.5404898710467645  -23.767505917068906  7.376778094673716  56.240022332707895  38.212311634642084  120.000000
2.449000000000001  0.000000  0.000000  0.000000  -38.721810617622786  4.777535267334972  1.1530855386284335  43.831621559882755  2.2536926861261235  0.15467640877364924  -21.109762274324503  7.375305560724591  52.656782201178665  36.052278553124324  120.000000
2.4800000000000013  0.000000  0.000000  0.000000  -38.199773139671514  4.324107422963023  0.15273157435844928  44.1979325421104  2.5384725888252295  0.8675875533186727  -18.014060736175963  7.431886209093852  48.69877620178478  33.932479337587395  120.000000
2.511000000000001  0.000000  0.000000  0.000000  -37.690381436506115  3.8644499110366195  -0.9091515865730243  44.51411348358916  2.8879779621987662  1.5791905559182153  -14.566783419013387  7.534593407646515  44.45619180486341  31.861082546388317  120.000000
2.542000000000001  0.000000  0.000000  0.000000  -37.20100194068836  3.3945919567229814  -2.0188676406077017  44.78069143679505  3.3093525416451555  2.279227856167824  -10.882606027565537  7.67441878140798  40.04180770462029  29.847076844263974  120.000000
2.5730000000000013  0.000000  0.000000  0.000000  -36.7389095542105  2.9111447150460577  -3.165889148797806  45.00240599390978  3.809350730483146  2.9631031462279016  -7.084514730419316  7.842965191150487  35.57384663755812  27.89957614758946  120.000000
2.604000000000001  0.000000  0.000000  0.000000  -36.31029285613499  2.4117870629550144  -4.3405597778761775  45.18489282718133  4.391750138923409  3.628082968421467  -3.2777025668552446  8.031038758334882  31.152380642899427  26.02620110816491  120.000000
2.635000000000001  0.000000  0.000000  0.000000  -35.92005813292148  1.895551334665113  -5.535483426036198  45.332837029299604  5.0578301037947995  4.273282714350811  0.46477607392745235  8.228555861708292  26.849327681836108  24.230791942812115  120.000000
2.6660000000000013  0.000000  0.000000  0.000000  -35.57168152100606  1.3631822214664906  -6.746598183216926  45.449019529306305  5.806314740022351  4.899150769325262  4.110561174950597  8.425574585155022  22.701406911320458  22.512560001321337  120.000000
2.6970000000000014  0.000000  0.000000  0.000000  -35.26727581957417  0.8180332059862825  -7.973956018822184  45.53349972109868  6.633735099023774  5.510030410954541  7.652536724523924  8.61204773101962  18.727210282169462  20.865425840884434  120.000000
2.728000000000001  0.000000  0.000000  0.000000  -35.00898440626643  0.2650073663625022  -9.221323429299181  45.58560581066934  7.535288583149856  6.11155620203495  11.108065332621372  8.778742457894804  14.924296053287328  19.28141667370716  120.000000
2.7590000000000012  0.000000  0.000000  0.000000  -34.80056079970193  -0.2891603148298377  -10.486734677421303  45.60205362629941  8.498552966301595  6.708392771788202  14.494124944028897  8.914971376271339  11.29131717988195  17.75366871967465  120.000000
2.7900000000000014  0.000000  0.000000  0.000000  -34.64702982941975  -0.8349950797427944  -11.759086766486188  45.58312017367761  9.502088521141312  7.298341206551173  17.838382750864984  9.00900416316629  7.8115066058338645  16.28007522754702  120.000000
2.821000000000001  0.000000  0.000000  0.000000  -34.55235689903969  -1.3614972918637942  -13.01856141024908  45.530866166742456  10.517816417371069  7.874571778331354  21.15929609324381  9.045332277281599  4.468846880522254  14.867149680683875  120.000000
2.852000000000001  0.000000  0.000000  0.000000  -34.515696946915696  -1.8574473299486562  -14.241022439133477  45.44702173259577  11.516122408817308  8.429770429572896  24.47793142340181  9.001751585125298  1.2306595384668377  13.526919743267976  120.000000
2.8830000000000013  0.000000  0.000000  0.000000  -34.53370314491745  -2.313874914277774  -15.403101278863632  45.34037420678312  12.470186699690617  8.958972227302226  27.794878040886342  8.85359230698623  -1.922770958477204  12.273897049645804  120.000000
2.9140000000000015  0.000000  0.000000  0.000000  -34.601713115459596  -2.7243225162311244  -16.483303270080462  45.218966623563986  13.360780258219242  9.45508961175261  31.145104197373374  8.572545810646025  -5.048326538277434  11.127881747553475  120.000000
2.945000000000001  0.000000  0.000000  0.000000  -34.7158307330436  -3.0930455644635497  -17.464176883805077  45.09280279918951  14.181532529985516  9.900513426950146  34.61903716113713  8.13471609655298  -8.256336781966537  10.112786897202636  120.000000
